<?xml version="1.0" ?><svg enable-background="new 0 0 515.91 728.5" height="512" id="Layer_1" version="1.1" viewBox="0 0 512.00003 512" width="512" xml:space="preserve" xmlns="http://www.w3.org/2000/svg" xmlns:cc="http://creativecommons.org/ns#" xmlns:dc="http://purl.org/dc/elements/1.1/" xmlns:inkscape="http://www.inkscape.org/namespaces/inkscape" xmlns:rdf="http://www.w3.org/1999/02/22-rdf-syntax-ns#" xmlns:sodipodi="http://sodipodi.sourceforge.net/DTD/sodipodi-0.dtd" xmlns:svg="http://www.w3.org/2000/svg"><defs id="defs7"/><g id="g16269" transform="matrix(1.0408514,0,0,1.0408514,22854.966,-28729.63)"><path d="m -21674.281,28076.938 -9.657,9.656 c -2.9,2.9 -4.5,6.806 -4.5,10.906 l 0,61 c 0,4.1 1.6,8.006 4.5,10.906 l 21.188,21.188 c 0.7,0.6 1,1.412 1,2.312 l 0,122.782 c 0,8.5 6.906,15.406 15.406,15.406 l 133.438,0 c -1.654,-3.759 -1.456,-8.289 0.25,-12.094 l -133.688,0 c -1.8,0 -3.312,-1.513 -3.312,-3.312 l 0,-122.782 c 0,-4.1 -1.6,-8.006 -4.5,-10.906 l -21.188,-21.188 c -0.7,-0.599 -1,-1.412 -1,-2.312 l 0,-61 c 0,-0.9 0.4,-1.713 1,-2.312 l 9.406,-9.407 c -1.637,-0.607 -3.172,-1.571 -4.468,-2.969 -1.98,-1.598 -3.237,-3.649 -3.875,-5.874 z m -75.875,1.218 c -3.82,1.872 -8.39,2.248 -12.188,0.469 l 0,13.063 c 0,0.899 -0.4,1.712 -1,2.312 l -50.094,50.094 c -2.9,2.9 -4.5,6.806 -4.5,10.906 l 0,96.719 c 1.628,-0.817 3.459,-1.268 5.438,-1.219 2.375,-0.166 4.691,0.375 6.75,1.406 l 0,-96.906 c 0,-0.9 0.4,-1.713 1,-2.312 l 50.094,-50.094 c 2.9,-2.9 4.5,-6.807 4.5,-10.906 z m 53.406,3.313 c -3.806,1.792 -8.38,1.759 -12.188,0.09 l 0,101.844 c 0,0.8 -0.4,1.682 -1,2.282 l -38.562,38.562 c 3.822,1.729 6.846,5.189 7.969,9.25 l 39.281,-39.188 c 2.9,-2.9 4.5,-6.806 4.5,-10.906 z m -38.688,0.625 0,30.812 c 0,0.8 -0.4,1.682 -1,2.282 l -44.624,44.624 c -2.901,2.901 -4.5,6.776 -4.5,10.876 l 0,81.687 c 1.893,-1.218 4.112,-1.936 6.562,-1.875 1.967,-0.137 3.884,0.201 5.656,0.906 l 0,-80.718 c 0,-0.9 0.4,-1.682 1,-2.282 l 44.594,-44.594 c 2.9,-2.9 4.5,-6.806 4.5,-10.906 l 0,-30.218 c -1.95,0.848 -4.051,1.305 -6.156,1.093 -2.207,-0.02 -4.249,-0.64 -6.032,-1.687 z m -98.25,2.344 -12.25,12.25 c -0.599,0.7 -1.412,1 -2.312,1 l -12.188,0 c -4.1,0 -8.006,1.599 -10.906,4.5 l -3.5,3.5 c 3.863,1.613 6.972,4.98 8.219,9 l 3.875,-3.876 c 0.6,-0.7 1.412,-1 2.312,-1 l 12.188,0 c 4.1,0 8.006,-1.599 10.906,-4.5 l 12.188,-12.218 c -1.748,-0.597 -3.378,-1.586 -4.75,-3.063 -1.896,-1.533 -3.122,-3.477 -3.782,-5.593 z m 36.626,3.062 -46.594,46.594 c -0.6,0.7 -1.381,1 -2.282,1 l -24.906,0 c -8.5,0 -15.406,6.906 -15.406,15.406 l 0,57 c 0,4.1 1.6,8.006 4.5,10.906 l 21.5,21.5 c 0.7,0.6 1,1.381 1,2.282 l 0,9.593 c 1.653,-0.848 3.501,-1.326 5.531,-1.281 2.392,-0.186 4.611,0.277 6.563,1.219 l 0,-9.531 c 0,-4.101 -1.6,-7.975 -4.5,-10.876 l -21.5,-21.5 c -0.7,-0.599 -1,-1.412 -1,-2.312 l 0,-57 c 0,-1.8 1.512,-3.312 3.312,-3.312 l 24.906,0 c 4.101,0 7.975,-1.6 10.876,-4.5 l 47.374,-47.344 c -2.236,-0.496 -4.326,-1.6 -6.031,-3.438 -1.538,-1.243 -2.63,-2.746 -3.343,-4.406 z m 182.812,12.5 0,60.188 c 0,0.899 -0.4,1.712 -1,2.312 l -23,23 0,55.812 31.094,31.094 c 2.9,2.9 6.806,4.5 10.906,4.5 l 82.406,0 c -1.711,-3.717 -1.445,-8.216 0.282,-12 l -82.594,0 c -0.9,0 -1.682,-0.4 -2.282,-1 l -27.624,-27.594 0,-45.718 19.5,-19.5 c 2.9,-2.9 4.5,-6.807 4.5,-10.906 l 0,-59.876 c -3.923,1.668 -8.502,1.787 -12.188,-0.312 z m -28.562,6.438 c -1.469,3.892 -4.963,6.856 -8.969,8.25 l 4.625,4.624 c 0.7,0.6 1,1.382 1,2.282 l 0,27.718 c 1.662,-0.861 3.526,-1.362 5.562,-1.312 2.295,-0.16 4.526,0.35 6.532,1.312 l 0,-27.718 c 0,-4.1 -1.6,-8.006 -4.5,-10.906 z m 70.656,15.906 c -3.82,1.871 -8.39,2.248 -12.188,0.468 l 0,62.5 c 0,0.9 -0.4,1.682 -1,2.282 l -17.468,17.468 c 3.934,1.432 7.159,4.691 8.593,8.626 l 17.563,-17.5 c 2.9,-2.901 4.5,-6.776 4.5,-10.876 z m -324.688,26.562 c -3.842,1.85 -8.429,2.175 -12.218,0.344 l 0,103.938 c 0,4.1 1.599,8.006 4.5,10.906 l 9.531,9.531 c 1.87,-3.897 5.289,-6.974 9.656,-7.656 l -10.469,-10.469 c -0.7,-0.6 -1,-1.412 -1,-2.312 z m 351.5,0.25 c -3.829,1.86 -8.419,2.217 -12.218,0.469 l 0,48.187 c 0,4.101 1.599,7.975 4.5,10.876 l 14.062,14.062 c 1.402,-4.048 4.388,-7.558 8.375,-8.938 l -13.719,-13.718 c -0.7,-0.6 -1,-1.381 -1,-2.282 z m -194.625,17.813 -11.469,11.5 c 3.899,1.519 7.093,4.812 8.438,8.781 l 12.062,-12.031 c -2.023,-0.552 -3.907,-1.63 -5.468,-3.313 -1.701,-1.369 -2.863,-3.081 -3.563,-4.937 z m -96.781,11.969 c -3.791,1.928 -8.364,2.353 -12.188,0.656 l 0,16.281 c 1.606,-0.789 3.401,-1.236 5.344,-1.187 2.413,-0.167 4.764,0.378 6.844,1.437 z m -85,5.124 c -3.833,1.857 -8.397,2.224 -12.188,0.407 l 0,44.875 c 1.631,-0.819 3.448,-1.292 5.438,-1.25 2.375,-0.166 4.691,0.375 6.75,1.406 z m 413.75,6.376 c -1.685,3.822 -5.355,6.601 -9.438,7.781 l 14.282,14.281 c 0.7,0.6 1,1.412 1,2.312 l 0,24.094 c 0,1.8 -1.482,3.282 -3.282,3.282 l -72.156,0 c 1.015,1.995 1.574,4.214 1.469,6.5 0.08,2.091 -0.385,4.01 -1.25,5.718 l 71.937,0 c 8.5,0 15.376,-6.9 15.376,-15.5 l 0,-24.094 c 0,-4.1 -1.6,-8.006 -4.5,-10.906 z m -171.062,23.531 c -3.834,1.852 -8.4,2.217 -12.188,0.406 l 0,61.219 c 0,0.8 -0.4,1.712 -1,2.312 l -25.812,25.782 c -0.6,0.7 -1.382,1 -2.282,1 l -94.625,0 c 0.524,1.038 0.922,2.138 1.157,3.281 0.833,3.163 0.331,6.275 -1.063,8.937 l 38.906,0 c 0.917,-0.213 1.873,-0.333 2.875,-0.312 1.251,-0.09 2.47,0.04 3.656,0.312 l 49.094,0 c 4.1,0 8,-1.594 11,-4.594 l 25.782,-25.812 c 2.9,-2.9 4.5,-6.806 4.5,-10.906 z m -43.407,48.25 -18.781,18.781 c -0.6,0.7 -1.412,1 -2.312,1 l -83.313,0 c 1.846,3.778 2.158,8.282 0.313,12.094 l 83,0 c 4.1,0 8.006,-1.6 10.906,-4.5 l 18.781,-18.782 c -1.652,-0.555 -3.199,-1.471 -4.531,-2.812 -2.045,-1.551 -3.362,-3.566 -4.063,-5.781 z m 100.188,15.469 c -1.426,3.921 -4.864,6.91 -8.844,8.343 l 14.969,14.969 c 2.9,2.9 6.806,4.5 10.906,4.5 l 96.781,0 c -2.063,-3.622 -2.04,-8.156 -0.5,-12.094 l -96.281,0 c -0.9,0 -1.713,-0.4 -2.312,-1 z m -137.625,46.718 c 0.953,1.861 1.511,3.916 1.5,6.063 0.174,2.23 -0.292,4.293 -1.219,6.125 l 36.563,0 c 0.799,0 1.712,0.4 2.312,1 l 28.812,28.812 c 0.701,0.6 1,1.381 1,2.282 l 0,144.718 c 1.628,-0.817 3.459,-1.267 5.438,-1.218 2.33,-0.161 4.605,0.366 6.656,1.374 l 0,-144.968 c 0,-4.1 -1.6,-8.006 -4.5,-10.906 l -28.812,-28.782 c -2.9,-2.9 -6.807,-4.5 -10.906,-4.5 z m 122.844,14.688 c -4.101,0 -7.975,1.6 -10.876,4.5 l -11.718,11.718 c -2.9,2.901 -4.5,6.776 -4.5,10.876 l 0,147.374 c 3.316,-1.641 7.246,-2.026 10.812,-0.562 0.445,0.136 0.866,0.319 1.282,0.5 l 0,-147.188 c 0,-0.899 0.4,-1.712 1,-2.312 l 11.718,-11.688 c 0.6,-0.7 1.381,-1 2.282,-1 l 98.343,0 c -1.771,-3.787 -1.42,-8.372 0.407,-12.218 z m -152.219,6.187 c -1.417,3.912 -4.855,6.909 -8.844,8.344 l 17.187,17.187 c 2.901,2.901 6.776,4.5 10.876,4.5 l 27.843,0 c -1.756,-3.754 -1.44,-8.3 0.344,-12.124 l -28.187,0 c -0.9,0 -1.682,-0.401 -2.282,-1 z m 176.343,17.219 c -8.5,0 -15.406,6.906 -15.406,15.406 l 0,39.5 c 0,0.8 -0.4,1.682 -1,2.282 l -6.031,6.062 c 3.949,1.417 7.209,4.653 8.656,8.594 l 5.969,-5.938 c 2.9,-2.9 4.5,-6.806 4.5,-10.906 l 0,-39.5 c 0,-1.8 1.513,-3.312 3.312,-3.312 l 20,0 c -1.74,-3.776 -1.406,-8.358 0.407,-12.188 z m 67,0 c -4,0 -7.818,1.606 -10.718,4.406 l -16.844,16.375 c 3.905,1.502 7.102,4.776 8.469,8.719 l 16.781,-16.406 c 0.6,-0.6 1.412,-0.906 2.312,-0.906 l 17.282,0 c -1.735,-3.807 -1.864,-8.353 -0.03,-12.188 z" id="path813" style="fill:#00a1f1;fill-opacity:1" transform="translate(0,-448)"/><path d="m -21756.344,28055.812 c -5.523,0 -10,4.478 -10,10 0,5.523 4.477,10 10,10 5.523,0 10,-4.477 10,-10 0,-5.522 -4.477,-10 -10,-10 z m 53.406,3.094 c -5.522,0 -10,4.477 -10,10 0,5.523 4.478,10 10,10 5.523,0 10,-4.477 10,-10 0,-5.523 -4.477,-10 -10,-10 z m -25.5,0.906 c -5.522,0 -10,4.478 -10,10 0,5.523 4.478,10 10,10 5.523,0 10,-4.477 10,-10 0,-5.522 -4.477,-10 -10,-10 z m 67.594,2.782 c -5.523,0 -10,4.477 -10,10 0,5.523 4.477,10 10,10 5.523,0 10,-4.477 10,-10 0,-5.523 -4.477,-10 -10,-10 z m -159.5,7.218 c -5.523,0 -10,4.478 -10,10 0,5.523 4.477,10 10,10 5.523,0 10,-4.477 10,-10 0,-5.522 -4.477,-10 -10,-10 z m 36.188,1.876 c -5.523,0 -10,4.477 -10,10 0,5.522 4.477,10 10,10 5.523,0 10,-4.478 10,-10 0,-5.523 -4.477,-10 -10,-10 z m 176.718,5.906 c -5.522,0 -10,4.477 -10,10 0,5.523 4.478,10 10,10 5.523,0 10,-4.477 10,-10 0,-5.523 -4.477,-10 -10,-10 z m -48.718,14 c -5.523,0 -10,4.477 -10,10 0,5.523 4.477,10 10,10 5.523,0 10,-4.477 10,-10 0,-5.523 -4.477,-10 -10,-10 z m 77.812,8.406 c -5.523,0 -10,4.477 -10,10 0,5.523 4.477,10 10,10 5.523,0 10,-4.477 10,-10 0,-5.523 -4.477,-10 -10,-10 z m -301.718,8.688 c -5.523,0 -10,4.477 -10,10 0,5.522 4.477,10 10,10 5.522,0 10,-4.478 10,-10 0,-5.523 -4.478,-10 -10,-10 z m -22.876,17.812 c -5.522,0 -10,4.477 -10,10 0,5.523 4.478,10 10,10 5.523,0 10,-4.477 10,-10 0,-5.523 -4.477,-10 -10,-10 z m 351.376,0.312 c -5.523,0 -10,4.478 -10,10 0,5.523 4.477,10 10,10 5.522,0 10,-4.477 10,-10 0,-5.522 -4.478,-10 -10,-10 z m -175.282,24.876 c -5.523,0 -10,4.477 -10,10 0,5.522 4.477,10 10,10 5.523,0 10,-4.478 10,-10 0,-5.523 -4.477,-10 -10,-10 z m 86.906,0.312 c -5.522,0 -10,4.477 -10,10 0,5.523 4.478,10 10,10 5.523,0 10,-4.477 10,-10 0,-5.523 -4.477,-10 -10,-10 z m -203.218,4.688 c -5.523,0 -10,4.477 -10,10 0,5.522 4.477,10 10,10 5.523,0 10,-4.478 10,-10 0,-5.523 -4.477,-10 -10,-10 z m -84.688,5 c -5.523,0 -10,4.477 -10,10 0,5.522 4.477,10 10,10 5.523,0 10,-4.478 10,-10 0,-5.523 -4.477,-10 -10,-10 z m 406.782,13.218 c -5.523,0 -10,4.477 -10,10 0,5.523 4.477,10 10,10 5.522,0 10,-4.477 10,-10 0,-5.523 -4.478,-10 -10,-10 z m -235.282,6.688 c -5.523,0 -10,4.477 -10,10 0,5.523 4.477,10 10,10 5.523,0 10,-4.477 10,-10 0,-5.523 -4.477,-10 -10,-10 z m 71.188,10 c -5.523,0 -10,4.477 -10,10 0,5.523 4.477,10 10,10 5.523,0 10,-4.477 10,-10 0,-5.523 -4.477,-10 -10,-10 z m -157.782,7.094 c -5.522,0 -10,4.477 -10,10 0,5.522 4.478,10 10,10 5.523,0 10,-4.478 10,-10 0,-5.523 -4.477,-10 -10,-10 z m 235.5,9.624 c -5.522,0 -10,4.478 -10,10 0,5.523 4.478,10 10,10 5.523,0 10,-4.477 10,-10 0,-5.522 -4.477,-10 -10,-10 z m 81.5,8.876 c -5.522,0 -10,4.477 -10,10 0,5.522 4.478,10 10,10 5.523,0 10,-4.478 10,-10 0,-5.523 -4.477,-10 -10,-10 z m -228.124,9.906 c -5.523,0 -10,4.477 -10,10 0,5.523 4.477,10 10,10 5.522,0 10,-4.477 10,-10 0,-5.523 -4.478,-10 -10,-10 z m -173.782,5 c -5.523,0 -10,4.477 -10,10 0,5.523 4.477,10 10,10 5.523,0 10,-4.477 10,-10 0,-5.523 -4.477,-10 -10,-10 z m 337.688,6.218 c -5.523,0 -10,4.478 -10,10 0,5.523 4.477,10 10,10 5.523,0 10,-4.477 10,-10 0,-5.522 -4.477,-10 -10,-10 z m -119,9.188 c -5.523,0 -10,4.477 -10,10 0,5.523 4.477,10 10,10 5.523,0 10,-4.477 10,-10 0,-5.523 -4.477,-10 -10,-10 z m -143.906,7 c -5.523,0 -10,4.477 -10,10 0,5.523 4.477,10 10,10 5.522,0 10,-4.477 10,-10 0,-5.523 -4.478,-10 -10,-10 z m 41.218,0 c -5.523,0 -10,4.477 -10,10 0,5.523 4.477,10 10,10 5.523,0 10,-4.477 10,-10 0,-5.523 -4.477,-10 -10,-10 z m 33.5,0 c -5.523,0 -10,4.477 -10,10 0,5.523 4.477,10 10,10 5.523,0 10,-4.477 10,-10 0,-5.523 -4.477,-10 -10,-10 z m 277.282,6.312 c -5.523,0 -10,4.478 -10,10 0,5.523 4.477,10 10,10 5.522,0 10,-4.477 10,-10 0,-5.522 -4.478,-10 -10,-10 z m -134.594,2.188 c -5.523,0 -10,4.477 -10,10 0,5.523 4.477,10 10,10 5.523,0 10,-4.477 10,-10 0,-5.523 -4.477,-10 -10,-10 z m -247,6.812 c -5.523,0 -10,4.478 -10,10 0,5.523 4.477,10 10,10 5.523,0 10,-4.477 10,-10 0,-5.522 -4.477,-10 -10,-10 z m 43.312,8.282 c -5.523,0 -10,4.477 -10,10 0,5.523 4.477,10 10,10 5.523,0 10,-4.477 10,-10 0,-5.523 -4.477,-10 -10,-10 z m 343.188,10.406 c -5.523,0 -10,4.477 -10,10 0,5.523 4.477,10 10,10 5.523,0 10,-4.477 10,-10 0,-5.523 -4.477,-10 -10,-10 z m -331.406,12.312 c -5.523,0 -10,4.478 -10,10 0,5.523 4.477,10 10,10 5.522,0 10,-4.477 10,-10 0,-5.522 -4.478,-10 -10,-10 z m 327.406,14.188 c -5.523,0 -10,4.477 -10,10 0,5.523 4.477,10 10,10 5.523,0 10,-4.477 10,-10 0,-5.523 -4.477,-10 -10,-10 z m -272.282,5.594 c -5.522,0 -10,4.477 -10,10 0,5.523 4.478,10 10,10 5.523,0 10,-4.477 10,-10 0,-5.523 -4.477,-10 -10,-10 z m -30.218,10 c -5.523,0 -10,4.477 -10,10 0,5.523 4.477,10 10,10 5.523,0 10,-4.477 10,-10 0,-5.523 -4.477,-10 -10,-10 z m 276.718,4.594 c -5.522,0 -10,4.477 -10,10 0,5.522 4.478,10 10,10 5.523,0 10,-4.478 10,-10 0,-5.523 -4.477,-10 -10,-10 z m -54.218,23.406 c -5.523,0 -10,4.477 -10,10 0,5.523 4.477,10 10,10 5.523,0 10,-4.477 10,-10 0,-5.523 -4.477,-10 -10,-10 z m 64.094,0 c -5.523,0 -10,4.477 -10,10 0,5.523 4.477,10 10,10 5.522,0 10,-4.477 10,-10 0,-5.523 -4.478,-10 -10,-10 z m -213.376,0.594 c -5.522,0 -10,4.477 -10,10 0,5.522 4.478,10 10,10 5.523,0 10,-4.478 10,-10 0,-5.523 -4.477,-10 -10,-10 z m 151.094,27.218 c -5.523,0 -10,4.477 -10,10 0,5.523 4.477,10 10,10 5.523,0 10,-4.477 10,-10 0,-5.523 -4.477,-10 -10,-10 z m -61.594,42.594 c -5.522,0 -10,4.477 -10,10 0,5.523 4.478,10 10,10 5.523,0 10,-4.477 10,-10 0,-5.523 -4.477,-10 -10,-10 z m -44.906,87.188 c -5.523,0 -10,4.477 -10,10 0,5.522 4.477,10 10,10 5.523,0 10,-4.478 10,-10 0,-5.523 -4.477,-10 -10,-10 z m 26.782,0 c -5.523,0 -10,4.477 -10,10 0,5.522 4.477,10 10,10 5.522,0 10,-4.478 10,-10 0,-5.523 -4.478,-10 -10,-10 z" id="circle901" style="fill:#333333;fill-opacity:1" transform="translate(0,-448)"/></g></svg>